<svg width="60" height="60" viewBox="0 0 60 60" fill="none" xmlns="http://www.w3.org/2000/svg">
<path d="M30 33.75C32.0711 33.75 33.75 32.0711 33.75 30C33.75 27.9289 32.0711 26.25 30 26.25C27.9289 26.25 26.25 27.9289 26.25 30C26.25 32.0711 27.9289 33.75 30 33.75Z" stroke="#3066BE" stroke-width="2" stroke-miterlimit="10" stroke-linecap="round" stroke-linejoin="round"/>
<path d="M11.25 33.75C13.3211 33.75 15 32.0711 15 30C15 27.9289 13.3211 26.25 11.25 26.25C9.17893 26.25 7.5 27.9289 7.5 30C7.5 32.0711 9.17893 33.75 11.25 33.75Z" stroke="#ACBED8" stroke-width="2" stroke-miterlimit="10" stroke-linecap="round" stroke-linejoin="round"/>
<path d="M48.75 33.75C50.8211 33.75 52.5 32.0711 52.5 30C52.5 27.9289 50.8211 26.25 48.75 26.25C46.6789 26.25 45 27.9289 45 30C45 32.0711 46.6789 33.75 48.75 33.75Z" stroke="#001021" stroke-width="2" stroke-miterlimit="10" stroke-linecap="round" stroke-linejoin="round"/>
</svg>
