<svg width="60" height="60" viewBox="0 0 60 60" fill="none" xmlns="http://www.w3.org/2000/svg">
<g clip-path="url(#clip0_28_118)">
<path d="M30 0C13.4297 0 0 13.4297 0 30C0 46.5703 13.4297 60 30 60C46.5703 60 60 46.5703 60 30C60 13.4297 46.5703 0 30 0ZM48.7266 48.7148C46.2891 51.1523 43.4648 53.0625 40.3125 54.3867C37.0547 55.7695 33.5859 56.4609 30 56.4609C26.4258 56.4609 22.957 55.7578 19.6875 54.3867C16.5352 53.0508 13.6992 51.1406 11.2734 48.7148C8.83594 46.2773 6.92578 43.4531 5.60156 40.3008C4.21875 37.043 3.51562 33.5742 3.51562 30C3.51562 26.4258 4.21875 22.957 5.58984 19.6875C6.92578 16.5352 8.83594 13.6992 11.2617 11.2734C13.7109 8.83594 16.5352 6.92578 19.6875 5.58984C22.957 4.21875 26.4258 3.51562 30 3.51562C33.5742 3.51562 37.043 4.21875 40.3125 5.58984C43.4648 6.92578 46.3008 8.83594 48.7266 11.2617C51.1641 13.6992 53.0742 16.5234 54.3984 19.6758C55.7813 22.9336 56.4727 26.4023 56.4727 29.9883C56.4727 33.5625 55.7695 37.0312 54.3984 40.3008C53.0625 43.4531 51.1523 46.2891 48.7266 48.7148Z" fill="#3066BE"/>
<path d="M21.6094 23.8359H15.7617V42.5508H21.6094V23.8359Z" fill="#3066BE"/>
<path d="M18.5625 15C16.4063 15 14.9883 16.3945 14.9883 18.2461C14.9883 20.0625 16.3594 21.4922 18.4805 21.4922H18.5273C20.7305 21.4922 22.1016 20.0508 22.0898 18.2461C22.043 16.3945 20.7187 15 18.5625 15Z" fill="#3066BE"/>
<path d="M37.582 23.6602C34.2305 23.6602 32.1328 25.4883 31.7461 26.7773V23.8359H25.1719C25.2539 25.3945 25.1719 42.5508 25.1719 42.5508H31.7461V32.4375C31.7461 31.8633 31.7227 31.3008 31.8867 30.9023C32.332 29.7773 33.3047 28.6055 35.0508 28.6055C37.3359 28.6055 38.3672 30.3398 38.3672 32.8711V42.5508H45V32.1445C45 26.3555 41.7422 23.6602 37.582 23.6602Z" fill="#3066BE"/>
</g>
<defs>
<clipPath id="clip0_28_118">
<rect width="60" height="60" fill="white"/>
</clipPath>
</defs>
</svg>
