<svg width="61" height="62" viewBox="0 0 61 62" fill="none" xmlns="http://www.w3.org/2000/svg">
<path d="M10.0645 39.568V29.032C10.0645 27.72 10.5205 26.76 11.4325 26.152C12.3605 25.544 13.6405 25.24 15.2725 25.24C16.9045 25.24 18.1525 25.664 19.0165 26.512C19.8645 25.664 21.1045 25.24 22.7365 25.24C26.2245 25.24 27.9685 26.504 27.9685 29.032V39.568C27.9685 39.936 27.6485 40.12 27.0085 40.12C26.3685 40.12 26.0485 39.936 26.0485 39.568V28.792C26.0485 27.544 25.0325 26.92 23.0005 26.92C20.9845 26.92 19.9765 27.56 19.9765 28.84V39.568C19.9765 39.936 19.6565 40.12 19.0165 40.12C18.3765 40.12 18.0565 39.936 18.0565 39.568V28.792C18.0565 27.544 17.0405 26.92 15.0085 26.92C12.9925 26.92 11.9845 27.544 11.9845 28.792V39.568C11.9845 39.936 11.6645 40.12 11.0245 40.12C10.3845 40.12 10.0645 39.936 10.0645 39.568Z" fill="#3066BE"/>
<path d="M27 39L31.6637 28.6953C31.8953 28.1618 32.1786 27.7352 32.4949 27.4432C32.8112 27.1512 33.1537 27 33.5 27C33.8463 27 34.1888 27.1512 34.5051 27.4432C34.8214 27.7352 35.1047 28.1618 35.3363 28.6953L40 39" stroke="#3066BE" stroke-width="2" stroke-linecap="round" stroke-linejoin="round"/>
<path d="M46.0078 33.856C45.6718 33.552 45.1678 33.4 44.4958 33.4C43.8238 33.4 43.3198 33.552 42.9838 33.856C42.6478 34.16 42.3998 34.632 42.2398 35.272L41.1598 39.568C41.0798 39.936 40.7358 40.12 40.1278 40.12C39.5358 40.12 39.2398 39.976 39.2398 39.688L40.3678 35.008C40.6718 33.728 41.2398 32.912 42.0718 32.56C41.2878 32.208 40.7198 31.392 40.3678 30.112L39.4798 26.848C39.3198 26.288 39.2398 25.976 39.2398 25.912C39.2398 25.624 39.5278 25.48 40.1038 25.48C40.6958 25.48 41.0478 25.664 41.1598 26.032L42.2398 29.848C42.4158 30.504 42.6638 30.984 42.9838 31.288C43.3198 31.576 43.8238 31.72 44.4958 31.72C45.1678 31.72 45.6638 31.576 45.9838 31.288C46.3198 30.984 46.5758 30.504 46.7518 29.848L47.8318 26.032C47.9438 25.664 48.2878 25.48 48.8638 25.48C49.4558 25.48 49.7518 25.624 49.7518 25.912C49.7518 25.976 49.6718 26.288 49.5118 26.848L48.6238 30.112C48.2718 31.392 47.7038 32.208 46.9198 32.56C47.7518 32.912 48.3198 33.728 48.6238 35.008L49.7518 39.688C49.7518 39.976 49.4478 40.12 48.8398 40.12C48.2478 40.12 47.9118 39.936 47.8318 39.568L46.7518 35.272C46.5918 34.632 46.3438 34.16 46.0078 33.856Z" fill="#3066BE"/>
<path d="M30.5 61C46.7923 61 60 47.5687 60 31C60 14.4315 46.7923 1 30.5 1C14.2076 1 1 14.4315 1 31C1 47.5687 14.2076 61 30.5 61Z" stroke="#3066BE" stroke-width="2" stroke-linecap="round" stroke-linejoin="round"/>
</svg>
