<svg width="84" height="84" viewBox="0 0 84 84" fill="none" xmlns="http://www.w3.org/2000/svg">
<path d="M13.9194 51.424V37.376C13.9194 35.6267 14.5274 34.3467 15.7434 33.536C16.9807 32.7253 18.6874 32.32 20.8634 32.32C23.0394 32.32 24.7034 32.8853 25.8554 34.016C26.986 32.8853 28.6394 32.32 30.8154 32.32C35.466 32.32 37.7914 34.0053 37.7914 37.376V51.424C37.7914 51.9147 37.3647 52.16 36.5114 52.16C35.658 52.16 35.2314 51.9147 35.2314 51.424V37.056C35.2314 35.392 33.8767 34.56 31.1674 34.56C28.4794 34.56 27.1354 35.4133 27.1354 37.12V51.424C27.1354 51.9147 26.7087 52.16 25.8554 52.16C25.002 52.16 24.5754 51.9147 24.5754 51.424V37.056C24.5754 35.392 23.2207 34.56 20.5114 34.56C17.8234 34.56 16.4794 35.392 16.4794 37.056V51.424C16.4794 51.9147 16.0527 52.16 15.1994 52.16C14.346 52.16 13.9194 51.9147 13.9194 51.424Z" fill="#3066BE"/>
<path d="M37 51L44.5337 37.2604C44.9078 36.5491 45.3654 35.9802 45.8764 35.5909C46.3873 35.2016 46.9406 35 47.5 35C48.0594 35 48.6127 35.2016 49.1236 35.5909C49.6346 35.9802 50.0922 36.5491 50.4663 37.2604L58 51" stroke="#3066BE" stroke-width="2.8" stroke-linecap="round" stroke-linejoin="round"/>
<path d="M66.0104 43.808C65.5624 43.4027 64.8904 43.2 63.9944 43.2C63.0984 43.2 62.4264 43.4027 61.9784 43.808C61.5304 44.2133 61.1997 44.8427 60.9864 45.696L59.5464 51.424C59.4397 51.9147 58.981 52.16 58.1704 52.16C57.381 52.16 56.9864 51.968 56.9864 51.584L58.4904 45.344C58.8957 43.6373 59.653 42.5493 60.7624 42.08C59.717 41.6107 58.9597 40.5227 58.4904 38.816L57.3064 34.464C57.093 33.7173 56.9864 33.3013 56.9864 33.216C56.9864 32.832 57.3704 32.64 58.1384 32.64C58.9277 32.64 59.397 32.8853 59.5464 33.376L60.9864 38.464C61.221 39.3387 61.5517 39.9787 61.9784 40.384C62.4264 40.768 63.0984 40.96 63.9944 40.96C64.8904 40.96 65.5517 40.768 65.9784 40.384C66.4264 39.9787 66.7677 39.3387 67.0024 38.464L68.4424 33.376C68.5917 32.8853 69.0504 32.64 69.8184 32.64C70.6077 32.64 71.0024 32.832 71.0024 33.216C71.0024 33.3013 70.8957 33.7173 70.6824 34.464L69.4984 38.816C69.029 40.5227 68.2717 41.6107 67.2264 42.08C68.3357 42.5493 69.093 43.6373 69.4984 45.344L71.0024 51.584C71.0024 51.968 70.597 52.16 69.7864 52.16C68.997 52.16 68.549 51.9147 68.4424 51.424L67.0024 45.696C66.789 44.8427 66.4584 44.2133 66.0104 43.808Z" fill="#3066BE"/>
<path d="M42 81.9999C64.0912 81.9999 82 64.0915 82 41.9999C82 19.9086 64.0912 2 42 2C19.9086 2 2 19.9086 2 41.9999C2 64.0915 19.9086 81.9999 42 81.9999Z" stroke="#3066BE" stroke-width="3.6" stroke-linecap="round" stroke-linejoin="round"/>
</svg>
